<svg width="114" height="47" viewBox="0 0 114 47" xmlns="http://www.w3.org/2000/svg" xmlns:xlink="http://www.w3.org/1999/xlink">
    <defs>
        <filter id="vthdymccaa">
            <feColorMatrix in="SourceGraphic" values="0 0 0 0 0.573571 0 0 0 0 0.576131 0 0 0 0 0.621716 0 0 0 1.000000 0"/>
        </filter>
        <path id="c0n9261eab" d="M0 0h14.46v27.183H0z"/>
    </defs>
    <g fill="none" fill-rule="evenodd">
        <path d="M24.243 41.655c3.195 0 3.195-4.775 0-4.775-3.223 0-3.223 4.775 0 4.775zm0-7.191c6.538 0 6.432 9.688 0 9.688-6.487 0-6.59-9.688 0-9.688zm-5.48-3.748h4.262V28.68h-3.232v-8.848h9.214v2.444h-6.563v3.963h6.563v2.44h-3.176v2.037h4.184v2.412H18.762v-2.412zM47.065 32.695h-2.622V19.492h2.622v3.492h3.243v2.548h-3.243v7.163zm-9.913-5.852c3.19 0 3.266-4.79 0-4.79s-3.163 4.79 0 4.79zm0-7.28c6.558 0 6.532 9.713 0 9.713-6.502 0-6.531-9.714 0-9.714zM57.809 24.668l-2.46 4.012h-2.993l3.845-5.933h-3.024v-2.406h3.256v-2.407h2.7v2.407h3.309v2.406h-3.08l3.847 5.933h-2.963l-2.437-4.012zm1.43 9.566h3.203v5.48h-6.54v1.349h6.859v2.091h-9.584V37.65h6.539v-1.399h-6.54v-2.017h3.31v-1.707h-4.342v-2.41H63.42v2.41h-4.18v1.707zM81.154 29.29h-2.619v-9.77h2.619v3.464h3.22v2.468h-3.22v3.838zm-9.125.99h2.62v5.176h6.625v2.443H72.03v-7.618zm-1.838-3.953h2.073V22.24H70.19v4.087zm-3.662 0h1.13V22.24h-1.13v-2.353h9.45v2.353h-1.261v4.087h1.261v2.38h-9.45v-2.38zM0 47V19.815h12.864v7.368H7.43v12.45h5.434V47z" fill="#111212"/>
        <g transform="translate(99.54)">
            <mask id="6xzjinwg0c" fill="#fff">
                <use xlink:href="#c0n9261eab"/>
            </mask>
            <path d="M.752 27.183H0v-7.368h.752c1.745 0 3.29-.69 4.438-1.822a6.169 6.169 0 0 0 1.84-4.4 6.169 6.169 0 0 0-1.84-4.401A6.268 6.268 0 0 0 .752 7.366H0V0h.752c3.774 0 7.223 1.527 9.693 3.98a13.53 13.53 0 0 1 4.014 9.613 13.525 13.525 0 0 1-4.014 9.61 13.74 13.74 0 0 1-9.686 3.98H.752z" fill="#EC1940" mask="url(#6xzjinwg0c)"/>
        </g>
    </g>
</svg>
